<svg viewBox="0 0 167.79 182.79"  version="1.1" xmlns="http://www.w3.org/2000/svg">
<path d="M52.4342,52.4342 L97.4342,67.4342 M67.4342,52.4342 L39.6992,10.8317 M67.4342,52.4342 L52.4342,67.4342 M67.4342,52.4342 L52.4342,82.4342 M67.4342,52.4342 L67.4342,67.4342 M67.4342,52.4342 L67.4342,82.4342 M52.4342,67.4342 L52.4342,97.4342 M52.4342,82.4342 L5,66.6228 M52.4342,82.4342 L67.4342,67.4342 M52.4342,82.4342 L82.4342,52.4342 M52.4342,82.4342 L52.4342,112.434 M67.4342,67.4342 L32.0788,32.0788 M67.4342,67.4342 L82.4342,52.4342 M67.4342,67.4342 L67.4342,97.4342 M82.4342,52.4342 L66.6228,5 M82.4342,52.4342 L82.4342,82.4342 M67.4342,82.4342 L127.434,52.4342 M52.4342,97.4342 L112.434,67.4342 M52.4342,112.434 L97.4342,82.4342 M67.4342,97.4342 L82.4342,97.4342 M82.4342,82.4342 L67.4342,112.434 M127.434,52.4342 L67.4342,127.434 M112.434,67.4342 L82.4342,112.434 M97.4342,82.4342 L97.4342,97.4342 M82.4342,97.4342 L112.434,82.4342 M67.4342,112.434 L127.434,67.4342 M52.4342,142.434 L17.0788,177.79 M67.4342,127.434 L32.0788,162.79 M82.4342,112.434 L47.0788,147.79 M97.4342,97.4342 L147.434,97.4342 M112.434,82.4342 L147.79,47.0788 M127.434,67.4342 L162.79,32.0788" stroke="black" fill="none" stroke-width="0.2"/>
<path d="M52.4342,52.4342 L97.4342,67.4342 M67.4342,52.4342 L52.4342,67.4342 M67.4342,52.4342 L52.4342,82.4342 M67.4342,52.4342 L67.4342,67.4342 M67.4342,52.4342 L39.6992,10.8317 M52.4342,67.4342 L52.4342,82.4342 M52.4342,67.4342 L67.4342,67.4342 M52.4342,67.4342 L82.4342,52.4342 M52.4342,67.4342 L10.8317,39.6992 M52.4342,82.4342 L67.4342,67.4342 M52.4342,82.4342 L5,66.6228 M67.4342,67.4342 L82.4342,52.4342 M67.4342,67.4342 L32.0788,32.0788" stroke="red" fill="none" stroke-width="0.2"/>
<path d="M67.4342,63.1484 L52.4342,52.4342 M67.4342,63.1484 L67.4342,52.4342 M67.4342,63.1484 L52.4342,67.4342 M67.4342,63.1484 L52.4342,82.4342 M67.4342,63.1484 L67.4342,67.4342 M67.4342,63.1484 L82.4342,52.4342 M67.4342,63.1484 L97.4342,67.4342 M67.4342,63.1484 L52.4342,52.4342 M67.4342,63.1484 L67.4342,52.4342 M67.4342,63.1484 L52.4342,67.4342 M67.4342,63.1484 L52.4342,82.4342 M67.4342,63.1484 L67.4342,67.4342 M67.4342,63.1484 L82.4342,52.4342 M67.4342,63.1484 L97.4342,67.4342 M64.4342,64.4342 L52.4342,52.4342 M64.4342,64.4342 L67.4342,52.4342 M64.4342,64.4342 L52.4342,67.4342 M64.4342,64.4342 L52.4342,82.4342 M64.4342,64.4342 L97.4342,67.4342 M64.4342,64.4342 L52.4342,52.4342 M64.4342,64.4342 L67.4342,52.4342 M64.4342,64.4342 L52.4342,67.4342 M64.4342,64.4342 L52.4342,82.4342 M64.4342,64.4342 L97.4342,67.4342 M69.9342,59.9342 L52.4342,52.4342 M69.9342,59.9342 L67.4342,52.4342 M69.9342,59.9342 L52.4342,67.4342 M69.9342,59.9342 L67.4342,67.4342 M69.9342,59.9342 L82.4342,52.4342 M69.9342,59.9342 L97.4342,67.4342 M69.9342,59.9342 L52.4342,52.4342 M69.9342,59.9342 L67.4342,52.4342 M69.9342,59.9342 L52.4342,67.4342 M69.9342,59.9342 L67.4342,67.4342 M69.9342,59.9342 L82.4342,52.4342 M69.9342,59.9342 L97.4342,67.4342 M67.4342,59.9342 L52.4342,52.4342 M67.4342,59.9342 L67.4342,52.4342 M67.4342,59.9342 L52.4342,67.4342 M67.4342,59.9342 L97.4342,67.4342 M67.4342,59.9342 L52.4342,52.4342 M67.4342,59.9342 L67.4342,52.4342 M67.4342,59.9342 L52.4342,67.4342 M67.4342,59.9342 L97.4342,67.4342 M67.4342,64.4342 L52.4342,52.4342 M67.4342,64.4342 L67.4342,52.4342 M67.4342,64.4342 L52.4342,82.4342 M67.4342,64.4342 L67.4342,67.4342 M67.4342,64.4342 L97.4342,67.4342 M67.4342,63.6842 L52.4342,52.4342 M67.4342,63.6842 L67.4342,52.4342 M67.4342,63.6842 L52.4342,82.4342 M67.4342,63.6842 L97.4342,67.4342 M71.1842,59.9342 L52.4342,52.4342 M71.1842,59.9342 L67.4342,52.4342 M71.1842,59.9342 L67.4342,67.4342 M71.1842,59.9342 L97.4342,67.4342 M72.4342,57.4342 L52.4342,52.4342 M72.4342,57.4342 L67.4342,52.4342 M72.4342,57.4342 L97.4342,67.4342 M67.4342,64.9342 L52.4342,52.4342 M67.4342,64.9342 L52.4342,67.4342 M67.4342,64.9342 L52.4342,82.4342 M67.4342,64.9342 L67.4342,67.4342 M67.4342,64.9342 L82.4342,52.4342 M67.4342,64.9342 L97.4342,67.4342 M67.4342,64.4342 L52.4342,52.4342 M67.4342,64.4342 L52.4342,67.4342 M67.4342,64.4342 L52.4342,82.4342 M67.4342,64.4342 L82.4342,52.4342 M67.4342,64.4342 L97.4342,67.4342 M67.4342,63.6842 L52.4342,52.4342 M67.4342,63.6842 L52.4342,67.4342 M67.4342,63.6842 L67.4342,67.4342 M67.4342,63.6842 L97.4342,67.4342 M67.4342,62.4342 L52.4342,52.4342 M67.4342,62.4342 L52.4342,67.4342 M67.4342,62.4342 L97.4342,67.4342 M70.4342,64.4342 L52.4342,52.4342 M70.4342,64.4342 L52.4342,82.4342 M70.4342,64.4342 L67.4342,67.4342 M70.4342,64.4342 L82.4342,52.4342 M70.4342,64.4342 L97.4342,67.4342 M67.4342,67.4342 L52.4342,52.4342 M67.4342,67.4342 L52.4342,82.4342 M67.4342,67.4342 L67.4342,67.4342 M67.4342,67.4342 L97.4342,67.4342 M67.4342,67.4342 L52.4342,52.4342 M67.4342,67.4342 L52.4342,82.4342 M67.4342,67.4342 L67.4342,67.4342 M67.4342,67.4342 L97.4342,67.4342 M71.1842,63.6842 L52.4342,52.4342 M71.1842,63.6842 L52.4342,82.4342 M71.1842,63.6842 L82.4342,52.4342 M71.1842,63.6842 L97.4342,67.4342 M67.4342,67.4342 L52.4342,52.4342 M67.4342,67.4342 L52.4342,82.4342 M67.4342,67.4342 L97.4342,67.4342 M67.4342,67.4342 L52.4342,52.4342 M67.4342,67.4342 L52.4342,82.4342 M67.4342,67.4342 L97.4342,67.4342 M72.4342,62.4342 L52.4342,52.4342 M72.4342,62.4342 L67.4342,67.4342 M72.4342,62.4342 L97.4342,67.4342 M72.4342,62.4342 L52.4342,52.4342 M72.4342,62.4342 L67.4342,67.4342 M72.4342,62.4342 L97.4342,67.4342 M71.1842,78.6842 L52.4342,52.4342 M71.1842,78.6842 L82.4342,67.4342 M71.1842,78.6842 L97.4342,67.4342 M71.1842,78.6842 L52.4342,127.434 M57.4342,67.4342 L67.4342,52.4342 M57.4342,67.4342 L52.4342,67.4342 M57.4342,67.4342 L52.4342,82.4342 M64.4342,64.4342 L67.4342,52.4342 M64.4342,64.4342 L52.4342,67.4342 M64.4342,64.4342 L52.4342,82.4342 M64.4342,64.4342 L67.4342,67.4342 M64.4342,64.4342 L82.4342,52.4342 M67.4342,59.9342 L67.4342,52.4342 M67.4342,59.9342 L52.4342,67.4342 M67.4342,59.9342 L67.4342,67.4342 M67.4342,59.9342 L82.4342,52.4342 M67.4342,59.9342 L67.4342,52.4342 M67.4342,59.9342 L52.4342,67.4342 M67.4342,59.9342 L67.4342,67.4342 M67.4342,59.9342 L82.4342,52.4342 M62.4342,67.4342 L67.4342,52.4342 M62.4342,67.4342 L52.4342,82.4342 M62.4342,67.4342 L67.4342,67.4342 M67.4342,63.6842 L67.4342,52.4342 M67.4342,63.6842 L52.4342,82.4342 M67.4342,63.6842 L67.4342,67.4342 M67.4342,63.6842 L82.4342,52.4342 M62.4342,67.4342 L67.4342,52.4342 M62.4342,67.4342 L52.4342,82.4342 M62.4342,67.4342 L67.4342,67.4342 M72.4342,57.4342 L67.4342,52.4342 M72.4342,57.4342 L67.4342,67.4342 M72.4342,57.4342 L82.4342,52.4342 M63.6842,67.4342 L52.4342,67.4342 M63.6842,67.4342 L52.4342,82.4342 M63.6842,67.4342 L67.4342,67.4342 M63.6842,67.4342 L82.4342,52.4342 M62.4342,67.4342 L52.4342,67.4342 M62.4342,67.4342 L52.4342,82.4342 M62.4342,67.4342 L82.4342,52.4342 M67.4342,62.4342 L52.4342,67.4342 M67.4342,62.4342 L67.4342,67.4342 M67.4342,62.4342 L82.4342,52.4342 M67.4342,67.4342 L52.4342,82.4342 M67.4342,67.4342 L67.4342,67.4342 M67.4342,67.4342 L82.4342,52.4342 M67.4342,67.4342 L52.4342,82.4342 M67.4342,67.4342 L67.4342,67.4342 M67.4342,67.4342 L82.4342,52.4342 M97.4342,74.9342 L82.4342,67.4342 M97.4342,74.9342 L112.434,52.4342 M97.4342,74.9342 L52.4342,127.434 M97.4342,74.9342 L142.434,52.4342 M102.434,82.4342 L112.434,52.4342 M102.434,82.4342 L52.4342,142.434 M102.434,82.4342 L142.434,52.4342" stroke="blue" fill="none" stroke-width="0.2"/>
<circle cx="52.4342" cy="52.4342" r="0.5" stroke="none" fill="black"/>
<circle cx="67.4342" cy="52.4342" r="0.5" stroke="none" fill="black"/>
<circle cx="52.4342" cy="67.4342" r="0.5" stroke="none" fill="black"/>
<circle cx="52.4342" cy="82.4342" r="0.5" stroke="none" fill="black"/>
<circle cx="67.4342" cy="67.4342" r="0.5" stroke="none" fill="black"/>
<circle cx="82.4342" cy="52.4342" r="0.5" stroke="none" fill="black"/>
<circle cx="97.4342" cy="52.4342" r="0.5" stroke="none" fill="black"/>
<circle cx="82.4342" cy="67.4342" r="0.5" stroke="none" fill="black"/>
<circle cx="67.4342" cy="82.4342" r="0.5" stroke="none" fill="black"/>
<circle cx="52.4342" cy="97.4342" r="0.5" stroke="none" fill="black"/>
<circle cx="52.4342" cy="112.434" r="0.5" stroke="none" fill="black"/>
<circle cx="67.4342" cy="97.4342" r="0.5" stroke="none" fill="black"/>
<circle cx="82.4342" cy="82.4342" r="0.5" stroke="none" fill="black"/>
<circle cx="97.4342" cy="67.4342" r="0.5" stroke="none" fill="black"/>
<circle cx="112.434" cy="52.4342" r="0.5" stroke="none" fill="black"/>
<circle cx="127.434" cy="52.4342" r="0.5" stroke="none" fill="black"/>
<circle cx="112.434" cy="67.4342" r="0.5" stroke="none" fill="black"/>
<circle cx="97.4342" cy="82.4342" r="0.5" stroke="none" fill="black"/>
<circle cx="82.4342" cy="97.4342" r="0.5" stroke="none" fill="black"/>
<circle cx="67.4342" cy="112.434" r="0.5" stroke="none" fill="black"/>
<circle cx="52.4342" cy="127.434" r="0.5" stroke="none" fill="black"/>
<circle cx="52.4342" cy="142.434" r="0.5" stroke="none" fill="black"/>
<circle cx="67.4342" cy="127.434" r="0.5" stroke="none" fill="black"/>
<circle cx="82.4342" cy="112.434" r="0.5" stroke="none" fill="black"/>
<circle cx="97.4342" cy="97.4342" r="0.5" stroke="none" fill="black"/>
<circle cx="112.434" cy="82.4342" r="0.5" stroke="none" fill="black"/>
<circle cx="127.434" cy="67.4342" r="0.5" stroke="none" fill="black"/>
<circle cx="142.434" cy="52.4342" r="0.5" stroke="none" fill="black"/>
</svg>