<svg viewBox="0 0 3360 1056"  version="1.1" xmlns="http://www.w3.org/2000/svg">
<g id="qubit_lines">
<path id="qubit_line:0" d="M64,64 L3328,64 " stroke="black"/>
<text dominant-baseline="central" text-anchor="end" font-family="monospace" font-size="12" x="64" y="64">q0</text>
<path id="qubit_line:1" d="M64,128 L3328,128 " stroke="black"/>
<text dominant-baseline="central" text-anchor="end" font-family="monospace" font-size="12" x="64" y="128">q1</text>
<path id="qubit_line:2" d="M64,192 L3328,192 " stroke="black"/>
<text dominant-baseline="central" text-anchor="end" font-family="monospace" font-size="12" x="64" y="192">q2</text>
<path id="qubit_line:3" d="M64,256 L3328,256 " stroke="black"/>
<text dominant-baseline="central" text-anchor="end" font-family="monospace" font-size="12" x="64" y="256">q3</text>
<path id="qubit_line:4" d="M64,320 L3328,320 " stroke="black"/>
<text dominant-baseline="central" text-anchor="end" font-family="monospace" font-size="12" x="64" y="320">q4</text>
<path id="qubit_line:5" d="M64,384 L3328,384 " stroke="black"/>
<text dominant-baseline="central" text-anchor="end" font-family="monospace" font-size="12" x="64" y="384">q5</text>
<path id="qubit_line:6" d="M64,448 L3328,448 " stroke="black"/>
<text dominant-baseline="central" text-anchor="end" font-family="monospace" font-size="12" x="64" y="448">q6</text>
<path id="qubit_line:7" d="M64,512 L3328,512 " stroke="black"/>
<text dominant-baseline="central" text-anchor="end" font-family="monospace" font-size="12" x="64" y="512">q7</text>
<path id="qubit_line:8" d="M64,576 L3328,576 " stroke="black"/>
<text dominant-baseline="central" text-anchor="end" font-family="monospace" font-size="12" x="64" y="576">q8</text>
<path id="qubit_line:9" d="M64,640 L3328,640 " stroke="black"/>
<text dominant-baseline="central" text-anchor="end" font-family="monospace" font-size="12" x="64" y="640">q9</text>
<path id="qubit_line:10" d="M64,704 L3328,704 " stroke="black"/>
<text dominant-baseline="central" text-anchor="end" font-family="monospace" font-size="12" x="64" y="704">q10</text>
<path id="qubit_line:11" d="M64,768 L3328,768 " stroke="black"/>
<text dominant-baseline="central" text-anchor="end" font-family="monospace" font-size="12" x="64" y="768">q11</text>
<path id="qubit_line:12" d="M64,832 L3328,832 " stroke="black"/>
<text dominant-baseline="central" text-anchor="end" font-family="monospace" font-size="12" x="64" y="832">q12</text>
<path id="qubit_line:13" d="M64,896 L3328,896 " stroke="black"/>
<text dominant-baseline="central" text-anchor="end" font-family="monospace" font-size="12" x="64" y="896">q13</text>
<path id="qubit_line:14" d="M64,960 L3328,960 " stroke="black"/>
<text dominant-baseline="central" text-anchor="end" font-family="monospace" font-size="12" x="64" y="960">q14</text>
</g>
<rect x="80" y="48" width="32" height="32" stroke="black" fill="white"/>
<text dominant-baseline="central" text-anchor="middle" font-family="monospace" font-size="30" x="96" y="64">H</text>
<path d="M160,64 L160,320 " stroke="black"/>
<circle cx="160" cy="64" r="12" stroke="none" fill="black"/>
<circle cx="160" cy="320" r="12" stroke="black" fill="white"/>
<path d="M148,320 L172,320 M160,308 L160,332 " stroke="black"/>
<path d="M224,64 L224,768 " stroke="black"/>
<circle cx="224" cy="64" r="12" stroke="none" fill="black"/>
<circle cx="224" cy="768" r="12" stroke="black" fill="white"/>
<path d="M212,768 L236,768 M224,756 L224,780 " stroke="black"/>
<path d="M288,64 L288,832 " stroke="black"/>
<circle cx="288" cy="64" r="12" stroke="none" fill="black"/>
<circle cx="288" cy="832" r="12" stroke="black" fill="white"/>
<path d="M276,832 L300,832 M288,820 L288,844 " stroke="black"/>
<path d="M352,64 L352,896 " stroke="black"/>
<circle cx="352" cy="64" r="12" stroke="none" fill="black"/>
<circle cx="352" cy="896" r="12" stroke="black" fill="white"/>
<path d="M340,896 L364,896 M352,884 L352,908 " stroke="black"/>
<path d="M416,64 L416,960 " stroke="black"/>
<circle cx="416" cy="64" r="12" stroke="none" fill="black"/>
<circle cx="416" cy="960" r="12" stroke="black" fill="white"/>
<path d="M404,960 L428,960 M416,948 L416,972 " stroke="black"/>
<rect x="464" y="112" width="32" height="32" stroke="black" fill="white"/>
<text dominant-baseline="central" text-anchor="middle" font-family="monospace" font-size="30" x="480" y="128">H</text>
<path d="M544,128 L544,384 " stroke="black"/>
<circle cx="544" cy="128" r="12" stroke="none" fill="black"/>
<circle cx="544" cy="384" r="12" stroke="black" fill="white"/>
<path d="M532,384 L556,384 M544,372 L544,396 " stroke="black"/>
<path d="M608,128 L608,576 " stroke="black"/>
<circle cx="608" cy="128" r="12" stroke="none" fill="black"/>
<circle cx="608" cy="576" r="12" stroke="black" fill="white"/>
<path d="M596,576 L620,576 M608,564 L608,588 " stroke="black"/>
<path d="M672,128 L672,704 " stroke="black"/>
<circle cx="672" cy="128" r="12" stroke="none" fill="black"/>
<circle cx="672" cy="704" r="12" stroke="black" fill="white"/>
<path d="M660,704 L684,704 M672,692 L672,716 " stroke="black"/>
<path d="M736,128 L736,832 " stroke="black"/>
<circle cx="736" cy="128" r="12" stroke="none" fill="black"/>
<circle cx="736" cy="832" r="12" stroke="black" fill="white"/>
<path d="M724,832 L748,832 M736,820 L736,844 " stroke="black"/>
<path d="M800,128 L800,896 " stroke="black"/>
<circle cx="800" cy="128" r="12" stroke="none" fill="black"/>
<circle cx="800" cy="896" r="12" stroke="black" fill="white"/>
<path d="M788,896 L812,896 M800,884 L800,908 " stroke="black"/>
<path d="M864,128 L864,960 " stroke="black"/>
<circle cx="864" cy="128" r="12" stroke="none" fill="black"/>
<circle cx="864" cy="960" r="12" stroke="black" fill="white"/>
<path d="M852,960 L876,960 M864,948 L864,972 " stroke="black"/>
<rect x="912" y="176" width="32" height="32" stroke="black" fill="white"/>
<text dominant-baseline="central" text-anchor="middle" font-family="monospace" font-size="30" x="928" y="192">H</text>
<path d="M992,192 L992,448 " stroke="black"/>
<circle cx="992" cy="192" r="12" stroke="none" fill="black"/>
<circle cx="992" cy="448" r="12" stroke="black" fill="white"/>
<path d="M980,448 L1004,448 M992,436 L992,460 " stroke="black"/>
<path d="M1056,192 L1056,640 " stroke="black"/>
<circle cx="1056" cy="192" r="12" stroke="none" fill="black"/>
<circle cx="1056" cy="640" r="12" stroke="black" fill="white"/>
<path d="M1044,640 L1068,640 M1056,628 L1056,652 " stroke="black"/>
<path d="M1120,192 L1120,704 " stroke="black"/>
<circle cx="1120" cy="192" r="12" stroke="none" fill="black"/>
<circle cx="1120" cy="704" r="12" stroke="black" fill="white"/>
<path d="M1108,704 L1132,704 M1120,692 L1120,716 " stroke="black"/>
<path d="M1184,192 L1184,768 " stroke="black"/>
<circle cx="1184" cy="192" r="12" stroke="none" fill="black"/>
<circle cx="1184" cy="768" r="12" stroke="black" fill="white"/>
<path d="M1172,768 L1196,768 M1184,756 L1184,780 " stroke="black"/>
<path d="M1248,192 L1248,896 " stroke="black"/>
<circle cx="1248" cy="192" r="12" stroke="none" fill="black"/>
<circle cx="1248" cy="896" r="12" stroke="black" fill="white"/>
<path d="M1236,896 L1260,896 M1248,884 L1248,908 " stroke="black"/>
<path d="M1312,192 L1312,960 " stroke="black"/>
<circle cx="1312" cy="192" r="12" stroke="none" fill="black"/>
<circle cx="1312" cy="960" r="12" stroke="black" fill="white"/>
<path d="M1300,960 L1324,960 M1312,948 L1312,972 " stroke="black"/>
<rect x="1360" y="240" width="32" height="32" stroke="black" fill="white"/>
<text dominant-baseline="central" text-anchor="middle" font-family="monospace" font-size="30" x="1376" y="256">H</text>
<path d="M1440,256 L1440,512 " stroke="black"/>
<circle cx="1440" cy="256" r="12" stroke="none" fill="black"/>
<circle cx="1440" cy="512" r="12" stroke="black" fill="white"/>
<path d="M1428,512 L1452,512 M1440,500 L1440,524 " stroke="black"/>
<path d="M1504,256 L1504,576 " stroke="black"/>
<circle cx="1504" cy="256" r="12" stroke="none" fill="black"/>
<circle cx="1504" cy="576" r="12" stroke="black" fill="white"/>
<path d="M1492,576 L1516,576 M1504,564 L1504,588 " stroke="black"/>
<path d="M1568,256 L1568,640 " stroke="black"/>
<circle cx="1568" cy="256" r="12" stroke="none" fill="black"/>
<circle cx="1568" cy="640" r="12" stroke="black" fill="white"/>
<path d="M1556,640 L1580,640 M1568,628 L1568,652 " stroke="black"/>
<path d="M1632,256 L1632,768 " stroke="black"/>
<circle cx="1632" cy="256" r="12" stroke="none" fill="black"/>
<circle cx="1632" cy="768" r="12" stroke="black" fill="white"/>
<path d="M1620,768 L1644,768 M1632,756 L1632,780 " stroke="black"/>
<path d="M1696,256 L1696,832 " stroke="black"/>
<circle cx="1696" cy="256" r="12" stroke="none" fill="black"/>
<circle cx="1696" cy="832" r="12" stroke="black" fill="white"/>
<path d="M1684,832 L1708,832 M1696,820 L1696,844 " stroke="black"/>
<path d="M1760,256 L1760,960 " stroke="black"/>
<circle cx="1760" cy="256" r="12" stroke="none" fill="black"/>
<circle cx="1760" cy="960" r="12" stroke="black" fill="white"/>
<path d="M1748,960 L1772,960 M1760,948 L1760,972 " stroke="black"/>
<path d="M1824,320 L1824,384 " stroke="black"/>
<circle cx="1824" cy="320" r="12" stroke="none" fill="black"/>
<circle cx="1824" cy="384" r="12" stroke="black" fill="white"/>
<path d="M1812,384 L1836,384 M1824,372 L1824,396 " stroke="black"/>
<path d="M1888,320 L1888,448 " stroke="black"/>
<circle cx="1888" cy="448" r="12" stroke="none" fill="black"/>
<circle cx="1888" cy="320" r="12" stroke="black" fill="white"/>
<path d="M1876,320 L1900,320 M1888,308 L1888,332 " stroke="black"/>
<path d="M1952,320 L1952,512 " stroke="black"/>
<circle cx="1952" cy="512" r="12" stroke="none" fill="black"/>
<circle cx="1952" cy="320" r="12" stroke="black" fill="white"/>
<path d="M1940,320 L1964,320 M1952,308 L1952,332 " stroke="black"/>
<path d="M2016,320 L2016,576 " stroke="black"/>
<circle cx="2016" cy="576" r="12" stroke="none" fill="black"/>
<circle cx="2016" cy="320" r="12" stroke="black" fill="white"/>
<path d="M2004,320 L2028,320 M2016,308 L2016,332 " stroke="black"/>
<path d="M2080,320 L2080,704 " stroke="black"/>
<circle cx="2080" cy="704" r="12" stroke="none" fill="black"/>
<circle cx="2080" cy="320" r="12" stroke="black" fill="white"/>
<path d="M2068,320 L2092,320 M2080,308 L2080,332 " stroke="black"/>
<path d="M2144,320 L2144,768 " stroke="black"/>
<circle cx="2144" cy="768" r="12" stroke="none" fill="black"/>
<circle cx="2144" cy="320" r="12" stroke="black" fill="white"/>
<path d="M2132,320 L2156,320 M2144,308 L2144,332 " stroke="black"/>
<path d="M2208,320 L2208,960 " stroke="black"/>
<circle cx="2208" cy="960" r="12" stroke="none" fill="black"/>
<circle cx="2208" cy="320" r="12" stroke="black" fill="white"/>
<path d="M2196,320 L2220,320 M2208,308 L2208,332 " stroke="black"/>
<path d="M2272,384 L2272,448 " stroke="black"/>
<circle cx="2272" cy="384" r="12" stroke="none" fill="black"/>
<circle cx="2272" cy="448" r="12" stroke="black" fill="white"/>
<path d="M2260,448 L2284,448 M2272,436 L2272,460 " stroke="black"/>
<path d="M2336,384 L2336,512 " stroke="black"/>
<circle cx="2336" cy="512" r="12" stroke="none" fill="black"/>
<circle cx="2336" cy="384" r="12" stroke="black" fill="white"/>
<path d="M2324,384 L2348,384 M2336,372 L2336,396 " stroke="black"/>
<path d="M2400,384 L2400,640 " stroke="black"/>
<circle cx="2400" cy="640" r="12" stroke="none" fill="black"/>
<circle cx="2400" cy="384" r="12" stroke="black" fill="white"/>
<path d="M2388,384 L2412,384 M2400,372 L2400,396 " stroke="black"/>
<path d="M2464,384 L2464,704 " stroke="black"/>
<circle cx="2464" cy="704" r="12" stroke="none" fill="black"/>
<circle cx="2464" cy="384" r="12" stroke="black" fill="white"/>
<path d="M2452,384 L2476,384 M2464,372 L2464,396 " stroke="black"/>
<path d="M2528,384 L2528,832 " stroke="black"/>
<circle cx="2528" cy="832" r="12" stroke="none" fill="black"/>
<circle cx="2528" cy="384" r="12" stroke="black" fill="white"/>
<path d="M2516,384 L2540,384 M2528,372 L2528,396 " stroke="black"/>
<path d="M2592,384 L2592,960 " stroke="black"/>
<circle cx="2592" cy="960" r="12" stroke="none" fill="black"/>
<circle cx="2592" cy="384" r="12" stroke="black" fill="white"/>
<path d="M2580,384 L2604,384 M2592,372 L2592,396 " stroke="black"/>
<path d="M2656,448 L2656,512 " stroke="black"/>
<circle cx="2656" cy="448" r="12" stroke="none" fill="black"/>
<circle cx="2656" cy="512" r="12" stroke="black" fill="white"/>
<path d="M2644,512 L2668,512 M2656,500 L2656,524 " stroke="black"/>
<path d="M2720,448 L2720,576 " stroke="black"/>
<circle cx="2720" cy="576" r="12" stroke="none" fill="black"/>
<circle cx="2720" cy="448" r="12" stroke="black" fill="white"/>
<path d="M2708,448 L2732,448 M2720,436 L2720,460 " stroke="black"/>
<path d="M2784,448 L2784,640 " stroke="black"/>
<circle cx="2784" cy="640" r="12" stroke="none" fill="black"/>
<circle cx="2784" cy="448" r="12" stroke="black" fill="white"/>
<path d="M2772,448 L2796,448 M2784,436 L2784,460 " stroke="black"/>
<path d="M2848,448 L2848,896 " stroke="black"/>
<circle cx="2848" cy="896" r="12" stroke="none" fill="black"/>
<circle cx="2848" cy="448" r="12" stroke="black" fill="white"/>
<path d="M2836,448 L2860,448 M2848,436 L2848,460 " stroke="black"/>
<path d="M2912,448 L2912,960 " stroke="black"/>
<circle cx="2912" cy="960" r="12" stroke="none" fill="black"/>
<circle cx="2912" cy="448" r="12" stroke="black" fill="white"/>
<path d="M2900,448 L2924,448 M2912,436 L2912,460 " stroke="black"/>
<path d="M2976,512 L2976,704 " stroke="black"/>
<circle cx="2976" cy="704" r="12" stroke="none" fill="black"/>
<circle cx="2976" cy="512" r="12" stroke="black" fill="white"/>
<path d="M2964,512 L2988,512 M2976,500 L2976,524 " stroke="black"/>
<path d="M3040,512 L3040,704 " stroke="black"/>
<circle cx="3040" cy="512" r="12" stroke="none" fill="black"/>
<circle cx="3040" cy="704" r="12" stroke="black" fill="white"/>
<path d="M3028,704 L3052,704 M3040,692 L3040,716 " stroke="black"/>
<path d="M3104,512 L3104,704 " stroke="black"/>
<circle cx="3104" cy="704" r="12" stroke="none" fill="black"/>
<circle cx="3104" cy="512" r="12" stroke="black" fill="white"/>
<path d="M3092,512 L3116,512 M3104,500 L3104,524 " stroke="black"/>
<path d="M3168,704 L3168,768 " stroke="black"/>
<circle cx="3168" cy="768" r="12" stroke="none" fill="black"/>
<circle cx="3168" cy="704" r="12" stroke="black" fill="white"/>
<path d="M3156,704 L3180,704 M3168,692 L3168,716 " stroke="black"/>
<path d="M3232,704 L3232,832 " stroke="black"/>
<circle cx="3232" cy="832" r="12" stroke="none" fill="black"/>
<circle cx="3232" cy="704" r="12" stroke="black" fill="white"/>
<path d="M3220,704 L3244,704 M3232,692 L3232,716 " stroke="black"/>
<path d="M3296,704 L3296,896 " stroke="black"/>
<circle cx="3296" cy="896" r="12" stroke="none" fill="black"/>
<circle cx="3296" cy="704" r="12" stroke="black" fill="white"/>
<path d="M3284,704 L3308,704 M3296,692 L3296,716 " stroke="black"/>
</svg>